<svg width="120" height="120" viewBox="0 0 120 120" fill="none" xmlns="http://www.w3.org/2000/svg">
<rect opacity="0.01" x="0.476349" y="0.375" width="119.149" height="119.25" stroke="#DCDEE0" stroke-width="0.75" stroke-dasharray="3.75"/>
<path opacity="0.8" d="M109.48 75.75H86.25V20.25H102.736V27H109.48V75.75Z" fill="url(#paint0_linear_288_7392)"/>
<path opacity="0.8" d="M11.25 74.25H0V105.75H27V54.75H11.25V74.25Z" fill="url(#paint1_linear_288_7392)"/>
<ellipse opacity="0.8" cx="60.0507" cy="105.375" rx="34.4709" ry="5.625" fill="url(#paint2_radial_288_7392)"/>
<path opacity="0.6" d="M16.8983 85.882C17.1003 85.147 18.1427 85.147 18.3447 85.882L21.4824 97.3013C21.6135 97.7787 21.2543 98.25 20.7592 98.25H14.4839C13.9888 98.25 13.6295 97.7787 13.7607 97.3013L16.8983 85.882Z" fill="url(#paint3_linear_288_7392)"/>
<rect opacity="0.6" x="16.4975" y="98.25" width="2.2481" height="7.5" fill="url(#paint4_linear_288_7392)"/>
<rect x="67.5" y="74.3154" width="4.33562" height="14.25" rx="0.75" transform="rotate(-45 67.5 74.3154)" fill="url(#paint5_linear_288_7392)"/>
<rect x="74.1271" y="83.0352" width="7.41873" height="20.9964" rx="0.75" transform="rotate(-45 74.1271 83.0352)" fill="url(#paint6_linear_288_7392)"/>
<ellipse cx="55.3468" cy="59.0526" rx="20.2329" ry="20.25" transform="rotate(-45 55.3468 59.0526)" stroke="url(#paint7_linear_288_7392)" stroke-width="6"/>
<circle cx="55.3468" cy="59.0522" r="12" transform="rotate(-45 55.3468 59.0522)" fill="url(#paint8_linear_288_7392)"/>
<ellipse opacity="0.5" cx="48.5618" cy="50.4595" rx="6" ry="4.5" stroke="url(#paint9_linear_288_7392)" stroke-width="2.25" stroke-linecap="round"/>
<path opacity="0.851395" d="M69.9448 85.3301L81.1729 96.2465" stroke="url(#paint10_linear_288_7392)" stroke-width="2.25" stroke-linecap="round" stroke-linejoin="round"/>
<path opacity="0.8" d="M69.0429 1.71387C71.4321 1.71387 73.4466 3.31312 74.08 5.5C74.2712 5.47715 74.4656 5.46388 74.663 5.46387C77.3531 5.46387 79.5341 7.64648 79.5341 10.3389C79.5341 13.0313 77.3531 15.2139 74.663 15.2139C74.5371 15.2139 74.4124 15.2076 74.289 15.1982V15.2139H65.2958V15.0566C64.9384 15.1578 64.5615 15.2139 64.1718 15.2139C61.8957 15.2137 60.0507 13.3669 60.0507 11.0889C60.0507 8.93703 61.697 7.17081 63.7977 6.98145C63.7977 6.97559 63.7977 6.96973 63.7977 6.96387C63.7977 4.06444 66.1459 1.71397 69.0429 1.71387Z" fill="url(#paint11_linear_288_7392)"/>
<path opacity="0.8" d="M7.38062 30.8569C8.79112 30.8569 9.97061 31.9721 10.2898 33.4731C10.4576 33.444 10.6303 33.4292 10.8064 33.4292C12.4619 33.4292 13.8044 34.7723 13.8044 36.4292C13.8044 38.0861 12.4619 39.4292 10.8064 39.4292C10.6611 39.4292 10.5184 39.4179 10.3787 39.3979V39.4282H5.23999V39.2788C4.97177 39.3739 4.6843 39.4292 4.38354 39.4292C2.9647 39.4292 1.8144 38.2779 1.81421 36.8579C1.81421 35.4377 2.96458 34.2866 4.38354 34.2866V34.2856C4.38354 32.3922 5.7253 30.8571 7.38062 30.8569Z" fill="url(#paint12_linear_288_7392)"/>
<defs>
<linearGradient id="paint0_linear_288_7392" x1="112.738" y1="75.75" x2="112.738" y2="20.25" gradientUnits="userSpaceOnUse">
<stop stop-color="white" stop-opacity="0.5"/>
<stop offset="1" stop-color="#F2F3F5"/>
</linearGradient>
<linearGradient id="paint1_linear_288_7392" x1="-3.78604" y1="105.75" x2="-3.78604" y2="54.75" gradientUnits="userSpaceOnUse">
<stop stop-color="white" stop-opacity="0.5"/>
<stop offset="1" stop-color="#F2F3F5"/>
</linearGradient>
<radialGradient id="paint2_radial_288_7392" cx="0" cy="0" r="1" gradientUnits="userSpaceOnUse" gradientTransform="translate(60.0507 105.872) rotate(180) scale(33.4606 1.78096)">
<stop stop-color="#EBEDF0"/>
<stop offset="1" stop-color="#F2F3F5" stop-opacity="0.3"/>
</radialGradient>
<linearGradient id="paint3_linear_288_7392" x1="13.5" y1="83.25" x2="13.5" y2="98.25" gradientUnits="userSpaceOnUse">
<stop stop-color="#F2F3F5"/>
<stop offset="1" stop-color="#DCDEE0"/>
</linearGradient>
<linearGradient id="paint4_linear_288_7392" x1="18.7456" y1="105.75" x2="18.7456" y2="98.25" gradientUnits="userSpaceOnUse">
<stop stop-color="white"/>
<stop offset="1" stop-color="#DCDEE0"/>
</linearGradient>
<linearGradient id="paint5_linear_288_7392" x1="71.8356" y1="88.5654" x2="71.8356" y2="74.3154" gradientUnits="userSpaceOnUse">
<stop stop-color="#EEEEEE"/>
<stop offset="1" stop-color="#D8D8D8"/>
</linearGradient>
<linearGradient id="paint6_linear_288_7392" x1="81.5459" y1="83.0352" x2="74.1271" y2="83.0352" gradientUnits="userSpaceOnUse">
<stop stop-color="#F2F3F5"/>
<stop offset="1" stop-color="#DCDEE0"/>
</linearGradient>
<linearGradient id="paint7_linear_288_7392" x1="35.1139" y1="38.8026" x2="35.1139" y2="79.3026" gradientUnits="userSpaceOnUse">
<stop stop-color="#F2F3F5"/>
<stop offset="1" stop-color="#DCDEE0"/>
</linearGradient>
<linearGradient id="paint8_linear_288_7392" x1="43.3468" y1="47.0522" x2="43.3468" y2="71.0522" gradientUnits="userSpaceOnUse">
<stop stop-color="white"/>
<stop offset="1" stop-color="#F7F8FA"/>
</linearGradient>
<linearGradient id="paint9_linear_288_7392" x1="42.5618" y1="45.9595" x2="42.5618" y2="54.9595" gradientUnits="userSpaceOnUse">
<stop stop-color="#F2F3F5"/>
<stop offset="1" stop-color="#DCDEE0"/>
</linearGradient>
<linearGradient id="paint10_linear_288_7392" x1="87.3461" y1="90.5164" x2="75.8749" y2="79.2775" gradientUnits="userSpaceOnUse">
<stop stop-color="#EBEDF0"/>
<stop offset="1" stop-color="#DCDEE0" stop-opacity="0.422531"/>
</linearGradient>
<linearGradient id="paint11_linear_288_7392" x1="81.9696" y1="14.803" x2="81.9696" y2="1.71387" gradientUnits="userSpaceOnUse">
<stop stop-color="#F2F3F5" stop-opacity="0.3"/>
<stop offset="1" stop-color="#F2F3F5"/>
</linearGradient>
<linearGradient id="paint12_linear_288_7392" x1="15.3033" y1="39.1683" x2="15.3033" y2="30.8569" gradientUnits="userSpaceOnUse">
<stop stop-color="#F2F3F5" stop-opacity="0.3"/>
<stop offset="1" stop-color="#F2F3F5"/>
</linearGradient>
</defs>
</svg>
